<svg id="Layer_1" data-name="Layer 1" xmlns="http://www.w3.org/2000/svg" width="40.02" height="40.79" viewBox="0 0 40.02 40.79"><defs><style>.cls-1{fill:#262dba;}</style></defs><path class="cls-1" d="M30.75,7.13A2.35,2.35,0,1,0,33.07,9.5,2.3,2.3,0,0,0,30.75,7.13Z"/><path class="cls-1" d="M39.57,9.56A9.67,9.67,0,0,0,30.26.44C23.51.12,16.72.1,10,.43A9.43,9.43,0,0,0,.59,9.09C.14,13.23.11,26.79.28,30c.3,5.61,4.08,10,9.44,10.33a205.33,205.33,0,0,0,20.61,0,9.7,9.7,0,0,0,9.23-9.06A215.75,215.75,0,0,0,39.57,9.56Zm-3.52,21c-.23,4-3.06,6.14-7.08,6.31-2.95.12-5.91,0-8.86,0s-6,.11-9,0c-4.31-.2-7.09-2.79-7.24-7.11-.21-6.11-.24-12.24,0-18.35.14-4.68,2.38-7.24,7-7.5a168.08,168.08,0,0,1,18.51,0c4.34.24,6.64,2.42,6.86,6.71A184.22,184.22,0,0,1,36.05,30.55Z"/><path class="cls-1" d="M20.27,10A10.21,10.21,0,0,0,9.82,20.14,10.24,10.24,0,1,0,20.27,10ZM20,27.18a6.81,6.81,0,0,1,.1-13.61A6.81,6.81,0,0,1,20,27.18Z"/></svg>