<svg id="Layer_1" data-name="Layer 1" xmlns="http://www.w3.org/2000/svg" width="427.13" height="31.29" viewBox="0 0 427.13 31.29"><defs><style>.cls-1{fill:#fff;}</style></defs><path class="cls-1" d="M10.5,8.83H0V.54H32.33V8.83H21.82V30.34H10.5Z"/><path class="cls-1" d="M35.45.54H63.84v8H46.77V12.9H59.31v4.94H46.77v4.53H64.29v8H35.45Z"/><path class="cls-1" d="M65.91,15.48C65.91,6.61,72.25,0,85.07,0c13.58,0,17.74,7.15,17.74,12.41a7.49,7.49,0,0,1,0,.9h-9.6v-.18c0-2.54-2.31-5.16-7.33-5.16-5.21,0-8,3.17-8,7.51,0,4.17,2.45,7.43,8.06,7.43,4.8,0,7.38-2.13,7.38-5.07v-.23h9.6a6.72,6.72,0,0,1,0,.77c0,6-4.52,12.5-17.79,12.5C70.58,30.88,65.91,23.18,65.91,15.48Z"/><path class="cls-1" d="M106.25.54h11.32V11h14.71V.54h11.28v29.8H132.28V19.2H117.57V30.34H106.25Z"/><path class="cls-1" d="M147.76.54h15.67L175.2,15.85h0L175.15.54h9.92v29.8H171.94L157.59,11.68h-.1l.19,18.66h-9.92Z"/><path class="cls-1" d="M189.5.54h11.32v29.8H189.5Z"/><path class="cls-1" d="M236,22.5l3.31,1.66c-2.74,4.35-7.79,7.13-14.87,7.13-10.82,0-17.45-6-17.45-15.38S213.65.54,224.59.54c7,0,12,2.82,14.75,7.13L236,9.33c-2.28-3.86-6.43-5.56-11.48-5.56-8.41,0-14,4.15-14,12.14s5.56,12.14,14,12.14C229.6,28.05,233.79,26.4,236,22.5Z"/><path class="cls-1" d="M271.61,27.19v3.23H245.92v-29h3.48V27.19Z"/><path class="cls-1" d="M300.86,22.63H281.3l-4.22,7.79h-3.86l15.95-29h3.9l15.95,29h-3.93Zm-1.7-3.15L291.08,4.6,283,19.48Z"/><path class="cls-1" d="M341.42,30.42,331.8,19.31H318V30.42h-3.52v-29H334c6.46,0,11.1,3.23,11.1,9,0,5.06-3.64,8.21-9,8.83L346,30.42Zm-7.71-14.34c4.68,0,7.79-1.78,7.79-5.72s-3.11-5.72-7.79-5.72H318V16.08Z"/><path class="cls-1" d="M352.81,30.42v-29h3.48v29Z"/><path class="cls-1" d="M392.87,4.56H379.16V30.42h-3.49V4.56H362V1.41h30.87Z"/><path class="cls-1" d="M398.71,1.41l12.18,15.71L423,1.41h4.14L412.59,20.26V30.42h-3.48V20.26L394.52,1.41Z"/></svg>