<svg id="Layer_1" data-name="Layer 1" xmlns="http://www.w3.org/2000/svg" width="302.38" height="464.63" viewBox="0 0 302.38 464.63"><defs><style>.cls-1{fill:none;stroke:#fff8e0;stroke-miterlimit:10;stroke-width:0.8px;}</style></defs><path class="cls-1" d="M17.57,228.55c-1.33.06-3.32,4.52-5.07,5.39-16.38,8.19-13.62,35.61-5.73,48.75,17,28.36,39.76,54.52,60.93,79.93,8.29,9.95,15.36,21.7,25.8,28.67,9.51,6.34,29.73,21.16,42.66,14.69a45.51,45.51,0,0,0,13.26-9.67c7.46-7.46,5.59-70,1.79-81.36-3.39-10.16,2.2-25.76-5.38-33.34-1.67-1.67-1,3.54-2.86,5.38-1.57,1.56-6.91,4.43-10,2.87-7.79-3.9-19.09-1.12-26.88-5-1.72-.86-12.11-5.81-12.55-5.38-2.36,2.37,1.44,12.36,1.44,17.21,0,16.81-4.66,32.87-4.66,48.38"/><path class="cls-1" d="M60.22,147.8c1.45,3,7.79,7.28,11.13,3.88,1.63-1.63-6-12.77-7.47-14.23-1.78-1.77-7.43,1-8.92,1.69-2.31,1.15-5.9,1.32-7.48,2.89-.89,7.9-.65,27.59,7,32.79,1.57.79,3.35,1.33,3.35,2"/><path class="cls-1" d="M47.05,176.5c-1,0,.37,2.12.43,2.18,9.12,10.22,30.63,10.11,38.1,22.67,1.33,2.66,4.08,7.45,5.78,9.16,3.89,3.89,1.24,12.61,3.62,17.36,2.71,5.43,4.1,44.47,4.1,53.28"/><path class="cls-1" d="M60.16,148c.16-.23-.84.69-1.15,1,0,.05-1.56.45-1.56.48,0,.59,1,2,1,3,0,.59-.26,3.68-.24,3.7,1.56-.37,3.68,1,5,2,.6.61,2.28,3.47,2.75,3.47"/><path class="cls-1" d="M47.15,177.06c0-5.55-8.35-31-3.78-35.57,2.46-2.45,5.32-2.65,8.51-4.25,2.64-1.32,3.86.95,5.19.95"/><path class="cls-1" d="M65.83,161.71c-.09.64,6.28,1,7.45,1.39,13.19,4.79,29.44,8.52,39.58,18.35,10.37,21.91,15.59,54.3,23.78,77.8,1.38,4.13,3.49,15.55,6.11,18.17.78.77.83,4.08,2,4.08"/><path class="cls-1" d="M56,104.77c-.46,1.25.89,5.85,1.23,7.22,1.36,5.42-.19,12.8,2.25,17.68.63,1.25.74,6.75,1.93,6.75"/><path class="cls-1" d="M60,150.14A22,22,0,0,0,61.53,153c.82.82,8.66,7.49,10.77,5.39,4.06-4.07-.75-4.51-.75-8.17"/><path class="cls-1" d="M73.42,157.44c-.12,2.28,6.11,7.24,6.11,7.77"/><path class="cls-1" d="M106.82,176.85c8.31,2.84,20.49-6.37,24.77-12.79,3.82-5.73,11.1-9.2,14-14.94,6.24-13.75,11-31.15,14.3-46"/><path class="cls-1" d="M105.15,38.19C77.21,36.36,78.87,69.43,69.87,87.43c-7.61,15.21-12.29,11-19.06,24.53"/><path class="cls-1" d="M113.72,4.81c-1.3-3.35-21.91,1.8-24.15,2.36-20.1,5-41.45,34.54-47.81,53.6-5.5,16.5-4.31,33.75-8.4,50.14C32,116.55,30.74,122.24,29.3,128c-1.68,6.72-5.5,12.44-6.66,19.42-1.7,10.16,4.46,21.84,2,31.58-3.17,12.7-9.76,27.32-6.37,40.86,2.45,9.79,11.66,16.79,13.91,25.79A85.39,85.39,0,0,0,37.7,261c.75,1.49-.32,4.89.87,6.08"/><path class="cls-1" d="M36.19,268.45c-.33-.85.59-.86,1.7-.64C48.24,270.88,54,262,59.55,256.56c3.74-3.74,12.9,1.14,17.75-.48,14.33-4.71,10.77-15.88,19.2-23"/><path class="cls-1" d="M105.69,38.61c-.43.63.18-2.49.39-3.13.83-2.48.46-5.66,1.59-7.91,2.55-5.12,5.69-17.41,5.69-22.14"/><path class="cls-1" d="M120.55,3.51C148.42-9.42,166.49,22,170.61,45.6c3.69,12.87,2.29,27.5,2.53,40.8,4,14.82,6.21,30,10.13,44.61,1.41,2.82-1.32,38.28,0,46.18,4.1,24.6,17.4,42.54,17.4,67.38"/><path class="cls-1" d="M140.39,155.29c-5.39,7.2-8,21.9-6.47,31.07,2.3,11.5,11,21,13,32.59,2.94,17.65.19,35.37,5.69,51.87,2,6,12.28,2.22,17.09,2.22,14,0,21.32-12.28,26.57-22.78,1.82-3.65,4.74-3.93,4.74-8.22"/><path class="cls-1" d="M108.72,39.11c3-2.23,5.47-30.72,8.12-33.37,1.43-1.43,4.37-1.83,6.33-3.79"/><path class="cls-1" d="M109.43,39.4a30.63,30.63,0,0,0,7.09,3c8.5,2,13.37,11.45,17.4,18.66,10.61,21.46,13.36,33.7,32.76,48.9"/><path class="cls-1" d="M185.33,144.13c-.46,0-.21-.34-.89-.34"/><path class="cls-1" d="M183.42,143.84c6.84,2.3,24.64,4,33.51,5.58,7.82,2,16.1,4.74,23.44,7.18,2,.66,11.24,3.38,11.24,5"/><path class="cls-1" d="M251,161.88c3.82.52,12,31.44,15,36.28,7.1,11.84,9.88,27.21,12.5,40.3,4,20,9.93,40.73,12.49,61.24,2,16.13,3.61,33.48,7.5,49.06,2.16,8.63,5.52,32.7,1.56,40.62-.84,1.69-1.12,12.18-2.81,12.18"/><path class="cls-1" d="M152.81,385.92c7.26.4,15,5.58,22.74,7.51,18.13,4.54,37,9.15,55.3,12.81,7.76.8,61.29-1.77,66.24-5.31"/><path class="cls-1" d="M154.87,351.79c4.44,1.07,21.86-.36,26.3-1.47,9.23-2.31,41.53,2.35,46.24,0,5-2.49,14.08-1.88,20-1.88"/><path class="cls-1" d="M173.66,273.28c-2.58,9.83,11.36,50,17.49,56.08,4,4,4.64,11.92,8.26,15.55.58.57,3.64,7.42,3.64,5.29"/><path class="cls-1" d="M150.46,302.81c0,1.42.32.09,1.66-.57,3.59-1.8,21.8-12.9,22.82-12.9"/><path class="cls-1" d="M53.36,276.89c6-2.43,37.58,25.25,40.26,25.25"/><path class="cls-1" d="M231.47,239.63c4.72,16.35-6.34,53.61-1,64.28,3.64,7.28,14.71,40,14.71,44.13"/><path class="cls-1" d="M86.48,387.48c0,5.1-8.76,9.65-11,14.23A47.75,47.75,0,0,1,68.56,411c-5.52,5.53-7.28,17.74-13.14,23.6-5.05,3.71.32,25.58,3,29.56"/></svg>