<svg id="Layer_1" data-name="Layer 1" xmlns="http://www.w3.org/2000/svg" width="317.34" height="456.82" viewBox="0 0 317.34 456.82"><defs><style>.cls-1{fill:none;stroke:#fff8e0;stroke-miterlimit:10;stroke-width:0.8px;}</style></defs><path class="cls-1" d="M150.54,370.22c-.32,0-1.19,4.26-1.36,4.84a54.38,54.38,0,0,0-1.13,7c-.48,2.85-1.79,5.46-2,8.35-.9,10.8-3.29,21.42-4.06,32.25-.58,8.13-.81,17.11.34,25.15.31,2.18,1.12,5.14,1.12,7.11"/><path class="cls-1" d="M130.13,454.94c2.81-5.49,12.62-22.77,12.62-27.71"/><path class="cls-1" d="M226.8,456.78c-.4-5.2,7.91-24.23,9.93-30.29,7.09-21.25,16-42.49,21.39-64.15,1.11-4.46-.5-9.53-.5-13.43"/><path class="cls-1" d="M14.57,453.39c-.61-.09-.11-.32.13-.8a45.11,45.11,0,0,0,3.73-12.43c1-5.94,5.2-23.85,9.2-27.85"/><path class="cls-1" d="M119,43c-.33,4.25-4.25,8.88-6.07,12.51-2.52,5,4.18,40,7.75,43.56,7.52,7.53,29.23,7.31,36.78-.24"/><path class="cls-1" d="M173.79,78.33c-.16,1.5-2.75,5.4-3.11,7.25-.76,3.93-2.7,7.89-3.88,11.56-.53,1.67-2,10.93-1.17,12.53.62,1.3,1.79,3.43,1.79,4.89"/><path class="cls-1" d="M183.21,57.65c.87-2.8,5.17-2,6.26.18,1.61,3.23-1.7,7.09-2.6,9.8-1.47,4.41-6,7.87-9.06,10.92-.27.27-2.77,1-3.22.49-.25-.25-.87-1-.87-.62"/><path class="cls-1" d="M113,55c-.13.57-.5-1.06-.65-1.63a35,35,0,0,1-.49-3.6c-.51-3.53,0-6.9,0-10.42,0-9.57,8.14-20,13.89-26.91C134.41,2,147.54-1,160.45,1.15c4.38.73,8.28,1.15,12.15,3.48,3.6,2.16,11.16,6.76,11.16,10.91"/><path class="cls-1" d="M119.33,43.46c.57-1.25.57-3.31,1.68-5,5.91-8.88,16.92-15,27-17,1.92-.38,8.58-1.07,10.3-.49,2,.68,5.5,1.32,7.81.74,4.23-1.06,7.94-2.48,12-3.84,1.76-.59,4-2.48,5.58-2.48"/><path class="cls-1" d="M167,26c-.07-.71,2.18-1.92,2.72-2.19,3.31-1.65,6.7-2.41,10.05-3.84.88-.38,7.08-2.59,7.44-2.24,5.65,5.66,8.32,22.79,5.7,30.64-1,2.89-.77,5.89-2.11,8.56-.3.6-.43,2.48-1,2.48"/><path class="cls-1" d="M166.75,27.27c.19-.57,2,1,2.5,1.54,2.24,2.23,3.47,4.59,5.21,7.2,3.46,5.19,5,10.94,6.82,16.49.53,1.59,2.11,3.36,2.11,5.09"/><path class="cls-1" d="M.94,329.74C-.62,323,4.45,289.43,5.86,281c4-23.69-1-48.81,2-72.67,2.65-21.21,10.32-40.43,17.73-60.19,3.29-8.78,15.57-37,24.48-41.46,11.19-5.59,33.29-.75,46.45-.75"/><path class="cls-1" d="M91,121.25c-1.69.19,4.22-12.5,5.23-13.84,3.14-4.19,15.1-19.73,20-19.73"/><path class="cls-1" d="M90.79,121.09c2.84.69,10.59-1.08,12.47.8.17.17-5,3.66-5.49,4-3.07,2-8.84,6.2-7.49,10.24,1.59,4.77,8.75,16.5,11.73,21.48,5.65,9.4,9,21.15,13,31.22,4.86,12.13,9.43,25,16,36,3.5,5.83,4.74,13.14,8.25,19,3,5.06,3.32,11.14,5.74,16,2.77,5.53.93,30.17-1,36-2.35,7-2.9,14.95-5.24,22-6.51,19.53-15.67,43-33.22,54.7-13.52,9-23.19-4-36-8.24a111.87,111.87,0,0,1-13.74-6c-2.73-1.36-6.27-5-8.49-5"/><path class="cls-1" d="M.74,329.86c2.5,6.37,10.13,8.81,16.36,8.81"/><path class="cls-1" d="M.55,331.45c-.62-.08,4.82-1.52,5.31-1.77,3.28-1.64,8.55-2.5,12.49-2.5,4.54,0,10.65-.66,14.49,1.25s11.44,6.5,14,6.5"/><path class="cls-1" d="M46.94,336c-1.58-4.05,1.91-25,2.63-30,2.44-17.09,1.16-34.72,4-51.7,1-5.77-.89-12,.25-17.73,1.29-6.41,4.32-12.74,5.25-19.23.61-4.25,1-8.87,2-13,.61-2.45,2-5.6,2-8"/><path class="cls-1" d="M58.77,221.44c.64,5.23,5.16,11.09,6.53,16.59,2.1,8.39,3.26,27.42.5,35.71-1.74,5.21-3.1,11.14-4.49,16.73-1,3.77-3.52,7.34-4.5,11.24-1.5,6-.49,12.45-2,18.48-2.85,11.43-7.74,22.89-7.74,35"/><path class="cls-1" d="M117.4,94.89c.34.78-1,6.43-1,8.11,0,5.51,1.41,10.34,2.72,15.58,1.43,5.73,7.13,13.73,8,17.93.69,3.47,3.1,6.64,3.8,10.15,1.32,6.6,3.77,13.23,5.08,19.75,2.26,11.33,5.13,22.12,7.06,33.7,1.13,6.76,1.56,13.22,2.9,19.92,1.87,9.35,1.21,19.07,3.08,28.45,1.36,6.79.33,21.66-1.63,27.54a20.86,20.86,0,0,0-1.27,6"/><path class="cls-1" d="M147.45,230.49c3.37-5.46,6.88-20.92,8.42-27.85,4.46-20.07,8.48-40,11.41-60.51.63-4.39,2.43-18.52.54-22.28a22.74,22.74,0,0,1-.43-5.19"/><path class="cls-1" d="M165.83,101.87c1.25,1.48,3.13,2.65,4.17,4.21,2.76,4.14,4.95,9.3,8.51,12.86,2.81,2.81,6.62,4.89,9.06,8.15,1.3,1.73,6.34,8.34,7.61,8.34"/><path class="cls-1" d="M183.92,131.69a6.49,6.49,0,0,1,1.11.48c.94.62,2.18.84,3.08,1.44,1.73,1.16,5.55,3.45,7.61,3.45"/><path class="cls-1" d="M184.23,132.36c-.33-.05.34.58.44.89a32.05,32.05,0,0,0,1.63,4.35c1.62,3.23,3.85,6.13,5.26,9.42,3.95,9.23,8.46,20.63,5.25,30.26-7.39,22.18-14.89,32.36-29.89,50.36-2,2.38-16.67,18.66-16.67,20.66"/><path class="cls-1" d="M124.3,131.35c-.13-.08,3.52,1.62,4.93,2.08,3.94,1.32,8.51,1.27,12.86,1.27,6.81,0,13.68-1.78,19.75-3.8,2-.68,5.28-3.89,6.88-3.89"/><path class="cls-1" d="M174.82,114c-.1-.26,3.63.63,4.09.75a82.72,82.72,0,0,0,8.32,2,116.34,116.34,0,0,1,24,5.7c6.23,2.34,12.19,3.75,18,7.09,8.26,4.72,14.67,12.09,22.34,17.56,4.59,3.28,8.46,7,12.78,10.63,2.33,1.94,5.3,3.3,7.4,5.39,3.17,3.17,7.33,6.06,10.94,8.94,9,7.22,18.67,15.79,25.88,24.8,3.81,4.76,9.31,13.2,8,19.72-1.14,5.71-4.74,11-6.78,16.49-3.64,9.72-9.37,21.28-15.4,29.73-2.54,3.56-11.25,17.9-11.25,21.72"/><path class="cls-1" d="M212,235.29c-.33-.68,1-3.14,1-4.1,0-8.39.3-9,6.77-13.88,1.8-1.35,3.9-3.14,5.69-3.74a19,19,0,0,0,6.94-4.8l.72-.71a24.52,24.52,0,0,0,2.67,2.66c2.1,1.58,4.84,2.58,7.12,4.1,4.83,3.22,11.75,9.61,17.08,9.61"/><path class="cls-1" d="M235.38,249.92c6.42-6.27,14-12.18,19.44-19.44,1.4-1.86,4-3.29,5-5.34,1-1.9,8.38-10.86,10-10.86"/><path class="cls-1" d="M235.19,250.44c1.27-4.58,13-2.08,16.07,0,2.78,1.85,5.49,3.35,7.83,5.69,1.84,1.84,3,4.75,4.27,6.94,2.45,4.09,6.65,8.25,9.79,11.4,2.73,2.72,9.79,7.17,9.79,10.32"/><path class="cls-1" d="M156.81,274.22c-.13-.34,2.91-2.77,3.33-3.19,3.59-3.59,7.23-7.42,10.52-11.36,10.18-12.22,20.8-25.64,33.8-34.92a84.32,84.32,0,0,1,11.08-7c1-.51,2.84-2.24,3.79-2.24"/><path class="cls-1" d="M182,246.89c9.19.8,20,1.14,29.23,1.14"/><path class="cls-1" d="M186.13,248.11c-2.31.7,5,3.14,5.85,2.3,1.05-1,.58-3.08-.84-3.08"/><path class="cls-1" d="M187.49,250c-1.65.23,2,3,2.24,3.11,2.7,1.34,6.66-.4,9.54.56,3.22,1.07,6.16,1.05,9.12,2.52,6.53,3.27,10,11.72,16.55,15,4.45,2.23,20.41,0,24.83-2.24.88-.45,3.83.94,4.62.14,1.21-1.21,8.14-3.64,8.14-5.33"/><path class="cls-1" d="M187.3,241c.11.34,4.15-.4,4.82-.4,3.52,0,7.12.14,10.52.14.6,0,4.49.12,4.49.42"/><path class="cls-1" d="M189.38,238.37c3.44-.67,6.46,2.37,9.61,2.37"/><path class="cls-1" d="M196.24,232.39c4.5-3.65,7.78.77,11.45.77"/><path class="cls-1" d="M205.05,225c2.2.57,4.58,4.89,5.58,6.9,3.29,6.58,8.25,8.25,12.91,12.9,2.51,2.51,5,5.61,8.69,5.61,1,0,3.79.31,3.79-.56"/><path class="cls-1" d="M145.15,289.51c-.09-.37.76,2.39,1,3.19a60,60,0,0,0,3.08,7.48c3.43,6.85,6.46,14.11,9.47,21.15,2,4.7,4.76,9.6,6.17,14.53,1.9,6.63,5.55,12.93,9,18.72,7.27,12.11,14.2,35.44,32.81,31.71,10.09-2,17-6.46,25.11-12.55,12.93-9.7,23.92-19.34,28.85-34.14,1.84-5.51-3-12.09-4.62-17-3.87-11.62-22.91-43.28-22.91-51.1"/><path class="cls-1" d="M170.47,86.87c-.35,1,3.22,4.87,3.7,6.35,1.35,4.14,7.94,23,10.37,23"/><path class="cls-1" d="M15.48,327.93c-.23.14.26.46.38.7a21.25,21.25,0,0,1,.77,2.86c1,2.92.89,6.4.89,9.71,0,.76.34,2.62,0,3.3-.54,1.08-1.61,5.6-2.1,7.06-.57,1.71-2.09,3.28-2.54,5.07-.91,3.65-2.8,7.52-4,11s-.21,7.53-1.11,11.14a23.54,23.54,0,0,0-.22,8.93c.41,1.65,2.1,5.46,2.1,6.17"/><path class="cls-1" d="M14.06,376.85a39.18,39.18,0,0,0-1.51,5.59c-.43,1.92.68,5.37,1,7.34.82,5,2.61,7.28,5.84,7.28"/><path class="cls-1" d="M19,380.45a22.43,22.43,0,0,0,.39,4.85c1,4.47-1.11,11.54,1.66,14.68.9,1,2.43,2.13,3.62,2.13"/><path class="cls-1" d="M28.36,381.86a106.43,106.43,0,0,0-3.9,26.49"/><path class="cls-1" d="M44.06,335c.55,2.19-.46,5.26,0,7.72.78,3.88.8,7.94,1.76,11.8.42,1.66-.19,3.52.23,5.18a12.13,12.13,0,0,1-.56,7.17,26.73,26.73,0,0,0-1.87,5c-.38,1.54-1.81,2.83-2.21,4.41-1.18,4.76-4.2,9.07-5.73,13.67-1.19,3.56-2.75,10.14-4.3,13.24-1,1.93-4,7.92-4,9.48"/><path class="cls-1" d="M26.93,407.83c-.79-.59-2.17.6-2.48,1.07-.91,1.41-.49,5.73,1.72,5.73"/><path class="cls-1" d="M26.58,407.83c1.09-.38,1.52,1.39,1.52,2.28"/><path class="cls-1" d="M10.32,393.79c-1.14.11,0,6.39,1.57,5.63,1.29-.64.08-7.14-1.43-5.63"/><path class="cls-1" d="M12.7,397.51c-.2-.44,1-.42,1.18-.85a6.21,6.21,0,0,0,.55-3"/><path class="cls-1" d="M251.92,270.65c.78-.09,25.58,14.16,31.4,14.16"/></svg>