<svg id="Layer_1" data-name="Layer 1" xmlns="http://www.w3.org/2000/svg" width="279.62" height="451.06" viewBox="0 0 279.62 451.06"><defs><style>.cls-1{fill:none;stroke:#262dba;stroke-linecap:round;stroke-linejoin:round;stroke-width:0.8px;}</style></defs><path class="cls-1" d="M175,70.29c-.57-2.29-12.77-2.94-15.55-2-14.63,4.88-23.8,20.55-33,32.79-3.51,4.67-3.09,11.54-4.8,16.68-1.79,5.37-4.86,20.68-3.07,26.07,2.49,7.46,13.85,19.21,19,24.35,1,1,2.91,1.18,3.84,2.11.41.4,19,0,20.13-.58,2.07-1,5.76-1,8.82-2.49s7-6.75,8.24-9.2c1.55-3.1,8.93-14.87,10.55-16.49,2.65-2.66,9.14-37.07,9.58-38,3.26-6.52-3.84-17.08-6.32-22-1-2-17.69-11.12-17.07-11.12"/><path class="cls-1" d="M118.5,144.43c-.42-.08-.24.75-.24,1.1,0,2.73-.34,7.78-1.53,10.17-.72,1.43-5,17.28-5,18.21"/><path class="cls-1" d="M165.24,168.09c-1.77.61-2.88,11.18-2.88,13.68"/><path class="cls-1" d="M115.85,159.51c-11.91.88-6.68,6.29-4.3,13.44,2.47,7.41,11.8,16.84,19.94,19.56,8.54,2.84,15.5-.56,22.43-4,2-1,8.54-6.9,9.2-6.9"/><path class="cls-1" d="M114.53,159.35c-1-.14-5,.23-5.66,1-.87.87-4.08,1.2-5.37,2.49-1.66,1.66-2.26,7.55-1.15,9.78.65,1.3.12,3.3.77,4.6,3,5.93,4.27,12.77,7.09,18.4,1.55,3.1,1.83,6.63,3.83,8.63,1.1,1.1,4.31-.52,5.18-1,2.39-1.19,14.95-7.6,14.95-10"/><path class="cls-1" d="M141.5,192.74c-.61,2.18,3.61,4.78,4.56,6.67,1.82,3.63,6.19,7.34,8.63,9.78.26.26.72-.46,1-.58,2.89-1.45,4.38-4.78,7.09-6.14.42-.2,2.11-1.4,2.11-1.91"/><path class="cls-1" d="M104.2,162.07c.43,1-2.24-.72-3.19-.24-1.31.65-2.22,2.16-3.65,2.88-2.47,1.23-3.45,4.79-6.13,6.13-6.14,3.07-11.16,8.07-16.87,10.93-.86.43-3.27,5.75-2.88,6.13,1.24,1.24,10.56.21,12.27,1.92.43.43-.58,1-.77,1.15-2.93,2.94-7.26,4.39-9.77,6.9-.26.26-1.57.93-1.15,1.35,3.78,3.78,7,10.89,8.24,15.91,1.21,4.85,12.49,27.53,15.15,31.25,9.07,12.71,18,25.56,28,37.58,6.15,7.38,16.32,16,21.28,23.39A179.47,179.47,0,0,0,165.23,333"/><path class="cls-1" d="M171.32,336.11s-6.07-3.1-6.09-3.07"/><path class="cls-1" d="M113.78,204.06c2.38,5.93,7,16.2,10.85,22,3.75,5.62,4.58,13.45,7.65,19.6,4.43,8.86,10.33,17.35,14.1,26.77,10.38,25.95,21.35,52.34,29.64,77.2,2,6.07,1.59,13.14,3.58,19.12s.85,12.93,2.39,19.12c4.93,19.7,1.2,42.33,1.2,62.62"/><path class="cls-1" d="M141.35,261.31c0-1.26,7.72-13.63,9.09-16.38,5.3-10.6,7-23.64,12.19-33.94,1.54-3.07.45-7.1,1.92-10,1.73-3.46.75-15.46-.72-18.4-.1-.19-.2-.72-.48-.72"/><path class="cls-1" d="M165.19,186.09c-.57.16,3.67,4.59,4.61,5.06.72.36,1.93,1.84,2.87,2.15,7.79,2.6,13.83,9.91,19.84,12.91.77.39,5.64,3,3.59,5s-5.62,17-7.65,21a354.2,354.2,0,0,1-22.23,38c-2.29,3.42-12.67,17.09-12.67,19.12"/><path class="cls-1" d="M77.71,180.11c.12-.31-1.52.13-1.84.29-1.72.86-4.34,1-6.21,1.67-5.33,1.77-10.71,3.65-16.26,5.5-6,2-17.37,2.79-22.22,7.65-5.27,5.27-6.87,24.23-8.13,31.78-4.27,25.6-.56,53.06-4.78,78.4-1.17,7-3.84,14-5,21C10.49,343,8.61,360,5.84,376.63,4.26,386.09.58,396.77.58,406.26"/><path class="cls-1" d="M49.57,253.59c.23,3,2.5,6.18,3.12,9.27.75,3.76,1,7.74,1.91,11.47,2,8.18-.2,17.67,1.19,26.05,4,24.2,5.61,48.83,9.09,73.14,3.2,22.45-5.5,51-5.5,73.14"/><path class="cls-1" d="M58.54,323.27c1.14.55-3.52,23.8-3.94,28C52.33,374,44.46,397,41.22,419.65,40,428.49,35,437.9,35,446.66"/><path class="cls-1" d="M162.14,177.13c.45,4.24,13.4,11.87,17.22,13.78,6.1,3.05,17,10.22,22.95,12.19,5.28,1.76,14.23,4.91,18.16,8.85a21.44,21.44,0,0,1,5.26,8.12c8.09,24.25,11.39,51.24,15.06,77,2.49,17.42,5.65,35.69,9.56,53.29,1.08,4.88,3.36,9.15,4.54,13.87,2.33,9.32,17.64,43.21,24.14,49.71"/><path class="cls-1" d="M216.78,264.76c-.21-.36-1.37,5.51-1.56,6.46-.9,4.46-1.55,9-2.63,13.39a113,113,0,0,1-8.85,23.66c-.86,1.72-3.9,6.29-2.86,8.36,1.42,2.86,3.77,5.4,5.25,8.37,2.59,5.16,3.46,10.86,5.26,16.25,4.07,12.22,8.12,24.13,12.19,36.33,1.81,5.44,11.71,27,11.71,30.6"/><path class="cls-1" d="M129.12,197.32c1.39,7.38,3.41,19.34,1.49,27.06-.75,3-.48,7-.48,10,0,.76-.2,5.5.24,5.5"/><path class="cls-1" d="M143.69,196.65c.13-.53.06,1,.06,1.19v5.74c0,4.53-.24,8.89-.24,13.39,0,13.54-.48,27.2-.48,40.87"/><path class="cls-1" d="M178.5,41c-.07.61,1,1.72,1.13,2.55.24,1.19-.19,3.54.33,4.57a12.74,12.74,0,0,0,2.12,1.31c1.34.9,2.11,3.83,3.92,4.74h.33a64.36,64.36,0,0,0,7.18-3.43c2.58-1.83,9.56.17,11.11-.17a15.47,15.47,0,0,0,2.45-1.13c1.8-.86,24.49.75,25.8,1.41s3.78-.9,5-.28c1.7.85,4.21-.26,5.85.56.67.33.4,1.51.84,2,.62.62,3.08-.41,3.9,0,0,0,3.23,3.94,3.34,4.18.54,1.06-1.36,2.28-.83,3.34.33.66,1.3.11,1.67.84,1.44,2.88,1.39,12.17,1.39,15.05,0,1-1.41,2.2-.83,3.35.28.57,1.6,1,1.95,1.39.81.82-.87,3.83-.28,5,.49,1,1.88,1.18,2.23,2.23.66,2-2.69,3.55-1.67,5.57s3.51,5.8,1.95,8.92c-.9,1.8-4,2.69-5,4.74-.29.58.66.66.84.84,2.42,2.42,3.62,7.74,3.62,12,0,5.69-.93,19.15-3.07,23.42-.32.65.67,4.14,0,6.13-.89,2.67,1,6.61-1.11,10.87-.55,1.1,1.67.41,1.67,0a16.32,16.32,0,0,0-1.67.84c-1.28.42-1.23.83-2.79.83-1.22,0-5-2.36-6.41-1.67s-1.11,2.79-2.23,3.34c-.77.39-1.08-1.12-1.67-.83-1.47.73-2.15,2.6-3.62,3.34-.24.12-.47-.09-.56-.28-.85-1.68-5.16-.55-5.86.84-.86,1.72.7,2.58-.55,4.46-2,3-4.46,7.8-4.46,11.43,0,.37-1.18.67-1.4.84-1,.71-1.61,2.11-2.78,2.5,0,0,.11-1.67-1.12-1.67-.6,0-3.31.59-3.62.28-.71-.7-.07-1.39-1.4-1.39h-.55c-1.89,1.88-3.84.66-6.42,1.95-.53.26-2.3,3.66-3.9,4.46-1.37.69-2.06-.67-3.62-.28-2.35.59-3.37,2.66-5.3,3.62a15.13,15.13,0,0,1-6.13,1.4c-.5,0-1.11-.93-1.11-.28"/><path class="cls-1" d="M178.51,40.83c-.66-.67-5-13.41-5.29-13.66-1.21-1.21-1.6-2.71-2.79-3.9-.66-.66-2.54-.31-3.07-.84s1.44-3,.56-3.9c-6-6-6.3-10.39-16.17-15.33-.88-.44-.92-1.86-1.67-2.23S124.74.31,122.77,1c-.25.08-.65.65-.84.84-1.53,1.53,1.49,1.48.84,2.79-2,4-12.45,6.84-16.17,8.08-3.25,1.08-.55,5-1.4,5.85S92,21.66,89.32,23c-1.22.61.93,1.86.28,2.51-.81.81-2.95,0-3.63,1.39-.49,1,1.25,2.66.56,3.35-1.71,1.71-6.46,4.13-3.35,7.25.2.19.57,1.38.28,1.67-1.65,1.65-5.33,2.26-6.69,3.62-.06.07,0,.19,0,.28,0,2.34-2.5,3.88-3.62,6.13-.22.44-2.27,2.19-1.67,2.79.11.12,1.38.85.83,1.4-2.25,2.25-7.74.62-4.18,4.18.22.21-.48.51-.56.55-1.85.93-3.36,3.93-4.46,5.58-.89,1.34-.43,9.23-.83,10-.48,1-6.14,6.69-4.74,8.09.56.56,1.76.18,2.23,1.11.63,1.26-.62,3.19-1.12,4.18-.69,1.4,1.19,1.81,1.68,2.79.27.54-.3,1.29-.56,1.67-1.38,2.07.56,2,.56,4.46,0,.73-1.81,2-1.4,2.79.84,1.68,2.49,1.17,1.4,3.35a6.7,6.7,0,0,0,0,2c.18.18,1.65,3,1.67,3.06,1.41.71,5.13,1.63,5.85,3.07.51,1-2.56,3.29-1.39,4.46.11.11.94,0,1.11,0,2,0-.69,2.52,0,3.9s3.32-.1,3.91,1.67c.47,1.43-.25,4.5.83,5.58.7.7,2.65.14,3.35.83.06.07,0,.19,0,.28,0,7.43-3,12.79,0,18.68.44.89,2.25-.25,2.79.28s-.06,2,1.11,2c6.12,0,3.14,3.69,5.85,6.41.87.87,2.43-1.91,3.07-2.23,1.37-.69,2.22,1.26,3.62.56.4-.2,3.05-2,3.35-1.67.59.58.26,2.35,1.11,2.78,1.12.56,2.89-1.57,3.63-.83,1,1-.3,3.31.28,4.46.72,1.44,5,3.63,5,4.46"/></svg>